<mxfile host="Electron" agent="Mozilla/5.0 (Windows NT 10.0; Win64; x64) AppleWebKit/537.36 (KHTML, like Gecko) draw.io/25.0.2 Chrome/128.0.6613.186 Electron/32.2.5 Safari/537.36" version="25.0.2">
  <diagram name="Page-1" id="AGX-1bpdlJzWP7kWuA8D">
    <mxGraphModel dx="2577" dy="2204" grid="1" gridSize="10" guides="1" tooltips="1" connect="1" arrows="1" fold="1" page="1" pageScale="1" pageWidth="827" pageHeight="1169" math="0" shadow="0">
      <root>
        <mxCell id="0" />
        <mxCell id="1" parent="0" />
        <mxCell id="bZ5_NQ2uuK0ErPmsJlpc-164" value="" style="rounded=1;whiteSpace=wrap;html=1;" vertex="1" parent="1">
          <mxGeometry x="1510" y="-20" width="900" height="1170" as="geometry" />
        </mxCell>
        <mxCell id="bZ5_NQ2uuK0ErPmsJlpc-73" value="" style="rounded=1;whiteSpace=wrap;html=1;" vertex="1" parent="1">
          <mxGeometry x="80" y="149.99999999999994" width="1090" height="940" as="geometry" />
        </mxCell>
        <mxCell id="bZ5_NQ2uuK0ErPmsJlpc-2" value="NVIC" style="rounded=0;whiteSpace=wrap;html=1;" vertex="1" parent="1">
          <mxGeometry x="290" y="290" width="120" height="60" as="geometry" />
        </mxCell>
        <mxCell id="bZ5_NQ2uuK0ErPmsJlpc-3" value="" style="endArrow=classic;html=1;rounded=0;entryX=0;entryY=0.5;entryDx=0;entryDy=0;" edge="1" parent="1" target="bZ5_NQ2uuK0ErPmsJlpc-2">
          <mxGeometry width="50" height="50" relative="1" as="geometry">
            <mxPoint x="200" y="320" as="sourcePoint" />
            <mxPoint x="240" y="300" as="targetPoint" />
          </mxGeometry>
        </mxCell>
        <mxCell id="bZ5_NQ2uuK0ErPmsJlpc-7" value="bouton_1" style="edgeLabel;html=1;align=center;verticalAlign=middle;resizable=0;points=[];" vertex="1" connectable="0" parent="bZ5_NQ2uuK0ErPmsJlpc-3">
          <mxGeometry x="-0.2667" y="2" relative="1" as="geometry">
            <mxPoint y="-28" as="offset" />
          </mxGeometry>
        </mxCell>
        <mxCell id="bZ5_NQ2uuK0ErPmsJlpc-5" value="" style="endArrow=classic;html=1;rounded=0;exitX=1;exitY=0.5;exitDx=0;exitDy=0;entryX=-0.006;entryY=0.073;entryDx=0;entryDy=0;entryPerimeter=0;" edge="1" parent="1" source="bZ5_NQ2uuK0ErPmsJlpc-2" target="bZ5_NQ2uuK0ErPmsJlpc-50">
          <mxGeometry width="50" height="50" relative="1" as="geometry">
            <mxPoint x="450" y="300" as="sourcePoint" />
            <mxPoint x="480" y="320" as="targetPoint" />
          </mxGeometry>
        </mxCell>
        <mxCell id="bZ5_NQ2uuK0ErPmsJlpc-6" value="IRQ_bouton_1" style="edgeLabel;html=1;align=center;verticalAlign=middle;resizable=0;points=[];" vertex="1" connectable="0" parent="bZ5_NQ2uuK0ErPmsJlpc-5">
          <mxGeometry x="0.5143" y="1" relative="1" as="geometry">
            <mxPoint x="-3" y="-19" as="offset" />
          </mxGeometry>
        </mxCell>
        <mxCell id="bZ5_NQ2uuK0ErPmsJlpc-8" value="NVIC" style="rounded=0;whiteSpace=wrap;html=1;" vertex="1" parent="1">
          <mxGeometry x="290" y="380" width="120" height="60" as="geometry" />
        </mxCell>
        <mxCell id="bZ5_NQ2uuK0ErPmsJlpc-9" value="" style="endArrow=classic;html=1;rounded=0;entryX=0;entryY=0.5;entryDx=0;entryDy=0;" edge="1" parent="1" target="bZ5_NQ2uuK0ErPmsJlpc-8">
          <mxGeometry width="50" height="50" relative="1" as="geometry">
            <mxPoint x="200" y="410" as="sourcePoint" />
            <mxPoint x="240" y="390" as="targetPoint" />
          </mxGeometry>
        </mxCell>
        <mxCell id="bZ5_NQ2uuK0ErPmsJlpc-10" value="bouton_2" style="edgeLabel;html=1;align=center;verticalAlign=middle;resizable=0;points=[];" vertex="1" connectable="0" parent="bZ5_NQ2uuK0ErPmsJlpc-9">
          <mxGeometry x="-0.2667" y="2" relative="1" as="geometry">
            <mxPoint y="-28" as="offset" />
          </mxGeometry>
        </mxCell>
        <mxCell id="bZ5_NQ2uuK0ErPmsJlpc-11" value="" style="endArrow=classic;html=1;rounded=0;exitX=1;exitY=0.5;exitDx=0;exitDy=0;entryX=0.006;entryY=0.185;entryDx=0;entryDy=0;entryPerimeter=0;" edge="1" parent="1" source="bZ5_NQ2uuK0ErPmsJlpc-8" target="bZ5_NQ2uuK0ErPmsJlpc-50">
          <mxGeometry width="50" height="50" relative="1" as="geometry">
            <mxPoint x="450" y="390" as="sourcePoint" />
            <mxPoint x="480" y="410" as="targetPoint" />
          </mxGeometry>
        </mxCell>
        <mxCell id="bZ5_NQ2uuK0ErPmsJlpc-13" value="I2C" style="rounded=0;whiteSpace=wrap;html=1;" vertex="1" parent="1">
          <mxGeometry x="290" y="460" width="120" height="60" as="geometry" />
        </mxCell>
        <mxCell id="bZ5_NQ2uuK0ErPmsJlpc-14" value="" style="endArrow=classic;html=1;rounded=0;entryX=0;entryY=0.5;entryDx=0;entryDy=0;" edge="1" parent="1" target="bZ5_NQ2uuK0ErPmsJlpc-13">
          <mxGeometry width="50" height="50" relative="1" as="geometry">
            <mxPoint x="200" y="490" as="sourcePoint" />
            <mxPoint x="240" y="470" as="targetPoint" />
          </mxGeometry>
        </mxCell>
        <mxCell id="bZ5_NQ2uuK0ErPmsJlpc-15" value="mesure_HTS221" style="edgeLabel;html=1;align=center;verticalAlign=middle;resizable=0;points=[];" vertex="1" connectable="0" parent="bZ5_NQ2uuK0ErPmsJlpc-14">
          <mxGeometry x="-0.2667" y="2" relative="1" as="geometry">
            <mxPoint y="-28" as="offset" />
          </mxGeometry>
        </mxCell>
        <mxCell id="bZ5_NQ2uuK0ErPmsJlpc-16" value="" style="endArrow=classic;html=1;rounded=0;exitX=1;exitY=0.5;exitDx=0;exitDy=0;entryX=0.006;entryY=0.289;entryDx=0;entryDy=0;entryPerimeter=0;" edge="1" parent="1">
          <mxGeometry width="50" height="50" relative="1" as="geometry">
            <mxPoint x="-770" y="-84.82000000000005" as="sourcePoint" />
            <mxPoint x="-668.6200000000003" y="-85.17999999999995" as="targetPoint" />
          </mxGeometry>
        </mxCell>
        <mxCell id="bZ5_NQ2uuK0ErPmsJlpc-17" value="IRQ_HTS221" style="edgeLabel;html=1;align=center;verticalAlign=middle;resizable=0;points=[];" vertex="1" connectable="0" parent="bZ5_NQ2uuK0ErPmsJlpc-16">
          <mxGeometry x="0.5143" y="1" relative="1" as="geometry">
            <mxPoint x="-3" y="-29" as="offset" />
          </mxGeometry>
        </mxCell>
        <mxCell id="bZ5_NQ2uuK0ErPmsJlpc-18" value="I2C" style="rounded=0;whiteSpace=wrap;html=1;" vertex="1" parent="1">
          <mxGeometry x="290" y="540" width="120" height="60" as="geometry" />
        </mxCell>
        <mxCell id="bZ5_NQ2uuK0ErPmsJlpc-19" value="" style="endArrow=classic;html=1;rounded=0;entryX=0;entryY=0.5;entryDx=0;entryDy=0;" edge="1" parent="1" target="bZ5_NQ2uuK0ErPmsJlpc-18">
          <mxGeometry width="50" height="50" relative="1" as="geometry">
            <mxPoint x="200" y="570" as="sourcePoint" />
            <mxPoint x="240" y="550" as="targetPoint" />
          </mxGeometry>
        </mxCell>
        <mxCell id="bZ5_NQ2uuK0ErPmsJlpc-20" value="mesure_LPS22HH" style="edgeLabel;html=1;align=center;verticalAlign=middle;resizable=0;points=[];" vertex="1" connectable="0" parent="bZ5_NQ2uuK0ErPmsJlpc-19">
          <mxGeometry x="-0.2667" y="2" relative="1" as="geometry">
            <mxPoint y="-28" as="offset" />
          </mxGeometry>
        </mxCell>
        <mxCell id="bZ5_NQ2uuK0ErPmsJlpc-21" value="" style="endArrow=classic;html=1;rounded=0;exitX=1;exitY=0.5;exitDx=0;exitDy=0;entryX=-0.012;entryY=0.397;entryDx=0;entryDy=0;entryPerimeter=0;" edge="1" parent="1" source="bZ5_NQ2uuK0ErPmsJlpc-18" target="bZ5_NQ2uuK0ErPmsJlpc-50">
          <mxGeometry width="50" height="50" relative="1" as="geometry">
            <mxPoint x="450" y="550" as="sourcePoint" />
            <mxPoint x="480" y="570" as="targetPoint" />
          </mxGeometry>
        </mxCell>
        <mxCell id="bZ5_NQ2uuK0ErPmsJlpc-22" value="IRQ_HTS221" style="edgeLabel;html=1;align=center;verticalAlign=middle;resizable=0;points=[];" vertex="1" connectable="0" parent="bZ5_NQ2uuK0ErPmsJlpc-21">
          <mxGeometry x="0.5143" y="1" relative="1" as="geometry">
            <mxPoint x="-3" y="-29" as="offset" />
          </mxGeometry>
        </mxCell>
        <mxCell id="bZ5_NQ2uuK0ErPmsJlpc-23" value="UART" style="rounded=0;whiteSpace=wrap;html=1;" vertex="1" parent="1">
          <mxGeometry x="290" y="630" width="120" height="60" as="geometry" />
        </mxCell>
        <mxCell id="bZ5_NQ2uuK0ErPmsJlpc-24" value="" style="endArrow=classic;html=1;rounded=0;entryX=0;entryY=0.5;entryDx=0;entryDy=0;" edge="1" parent="1" target="bZ5_NQ2uuK0ErPmsJlpc-23">
          <mxGeometry width="50" height="50" relative="1" as="geometry">
            <mxPoint x="200" y="660" as="sourcePoint" />
            <mxPoint x="240" y="640" as="targetPoint" />
          </mxGeometry>
        </mxCell>
        <mxCell id="bZ5_NQ2uuK0ErPmsJlpc-25" value="mesure" style="edgeLabel;html=1;align=center;verticalAlign=middle;resizable=0;points=[];" vertex="1" connectable="0" parent="bZ5_NQ2uuK0ErPmsJlpc-24">
          <mxGeometry x="-0.2667" y="2" relative="1" as="geometry">
            <mxPoint y="-28" as="offset" />
          </mxGeometry>
        </mxCell>
        <mxCell id="bZ5_NQ2uuK0ErPmsJlpc-26" value="" style="endArrow=classic;html=1;rounded=0;exitX=1;exitY=0.5;exitDx=0;exitDy=0;entryX=-0.006;entryY=0.517;entryDx=0;entryDy=0;entryPerimeter=0;" edge="1" parent="1" source="bZ5_NQ2uuK0ErPmsJlpc-23" target="bZ5_NQ2uuK0ErPmsJlpc-50">
          <mxGeometry width="50" height="50" relative="1" as="geometry">
            <mxPoint x="450" y="640" as="sourcePoint" />
            <mxPoint x="480" y="660" as="targetPoint" />
          </mxGeometry>
        </mxCell>
        <mxCell id="bZ5_NQ2uuK0ErPmsJlpc-27" value="IRQ_Rain" style="edgeLabel;html=1;align=center;verticalAlign=middle;resizable=0;points=[];" vertex="1" connectable="0" parent="bZ5_NQ2uuK0ErPmsJlpc-26">
          <mxGeometry x="0.5143" y="1" relative="1" as="geometry">
            <mxPoint x="-23" y="-29" as="offset" />
          </mxGeometry>
        </mxCell>
        <mxCell id="bZ5_NQ2uuK0ErPmsJlpc-28" value="UART" style="rounded=0;whiteSpace=wrap;html=1;" vertex="1" parent="1">
          <mxGeometry x="290" y="710" width="120" height="60" as="geometry" />
        </mxCell>
        <mxCell id="bZ5_NQ2uuK0ErPmsJlpc-29" value="" style="endArrow=classic;html=1;rounded=0;entryX=0;entryY=0.5;entryDx=0;entryDy=0;" edge="1" parent="1" target="bZ5_NQ2uuK0ErPmsJlpc-28">
          <mxGeometry width="50" height="50" relative="1" as="geometry">
            <mxPoint x="200" y="740" as="sourcePoint" />
            <mxPoint x="240" y="720" as="targetPoint" />
          </mxGeometry>
        </mxCell>
        <mxCell id="bZ5_NQ2uuK0ErPmsJlpc-30" value="mesure_Wind" style="edgeLabel;html=1;align=center;verticalAlign=middle;resizable=0;points=[];" vertex="1" connectable="0" parent="bZ5_NQ2uuK0ErPmsJlpc-29">
          <mxGeometry x="-0.2667" y="2" relative="1" as="geometry">
            <mxPoint y="-28" as="offset" />
          </mxGeometry>
        </mxCell>
        <mxCell id="bZ5_NQ2uuK0ErPmsJlpc-31" value="" style="endArrow=classic;html=1;rounded=0;exitX=1;exitY=0.5;exitDx=0;exitDy=0;entryX=0;entryY=0.618;entryDx=0;entryDy=0;entryPerimeter=0;" edge="1" parent="1" source="bZ5_NQ2uuK0ErPmsJlpc-28" target="bZ5_NQ2uuK0ErPmsJlpc-50">
          <mxGeometry width="50" height="50" relative="1" as="geometry">
            <mxPoint x="450" y="720" as="sourcePoint" />
            <mxPoint x="480" y="740" as="targetPoint" />
          </mxGeometry>
        </mxCell>
        <mxCell id="bZ5_NQ2uuK0ErPmsJlpc-32" value="IRQ_wind" style="edgeLabel;html=1;align=center;verticalAlign=middle;resizable=0;points=[];" vertex="1" connectable="0" parent="bZ5_NQ2uuK0ErPmsJlpc-31">
          <mxGeometry x="0.5143" y="1" relative="1" as="geometry">
            <mxPoint x="-23" y="-29" as="offset" />
          </mxGeometry>
        </mxCell>
        <mxCell id="bZ5_NQ2uuK0ErPmsJlpc-33" value="Timer6" style="rounded=0;whiteSpace=wrap;html=1;" vertex="1" parent="1">
          <mxGeometry x="290" y="790" width="120" height="60" as="geometry" />
        </mxCell>
        <mxCell id="bZ5_NQ2uuK0ErPmsJlpc-36" value="" style="endArrow=classic;html=1;rounded=0;exitX=1;exitY=0.5;exitDx=0;exitDy=0;entryX=0;entryY=0.724;entryDx=0;entryDy=0;entryPerimeter=0;" edge="1" parent="1" source="bZ5_NQ2uuK0ErPmsJlpc-33" target="bZ5_NQ2uuK0ErPmsJlpc-50">
          <mxGeometry width="50" height="50" relative="1" as="geometry">
            <mxPoint x="450" y="800" as="sourcePoint" />
            <mxPoint x="480" y="820" as="targetPoint" />
          </mxGeometry>
        </mxCell>
        <mxCell id="bZ5_NQ2uuK0ErPmsJlpc-37" value="IRQ_TIM6" style="edgeLabel;html=1;align=center;verticalAlign=middle;resizable=0;points=[];" vertex="1" connectable="0" parent="bZ5_NQ2uuK0ErPmsJlpc-36">
          <mxGeometry x="0.5143" y="1" relative="1" as="geometry">
            <mxPoint x="-23" y="-29" as="offset" />
          </mxGeometry>
        </mxCell>
        <mxCell id="bZ5_NQ2uuK0ErPmsJlpc-38" value="Timer1" style="rounded=0;whiteSpace=wrap;html=1;" vertex="1" parent="1">
          <mxGeometry x="290" y="880" width="120" height="60" as="geometry" />
        </mxCell>
        <mxCell id="bZ5_NQ2uuK0ErPmsJlpc-41" value="" style="endArrow=classic;html=1;rounded=0;exitX=1;exitY=0.5;exitDx=0;exitDy=0;entryX=0.023;entryY=0.843;entryDx=0;entryDy=0;entryPerimeter=0;" edge="1" parent="1" source="bZ5_NQ2uuK0ErPmsJlpc-38" target="bZ5_NQ2uuK0ErPmsJlpc-50">
          <mxGeometry width="50" height="50" relative="1" as="geometry">
            <mxPoint x="450" y="890" as="sourcePoint" />
            <mxPoint x="480" y="910" as="targetPoint" />
          </mxGeometry>
        </mxCell>
        <mxCell id="bZ5_NQ2uuK0ErPmsJlpc-42" value="IRQ_TIM1" style="edgeLabel;html=1;align=center;verticalAlign=middle;resizable=0;points=[];" vertex="1" connectable="0" parent="bZ5_NQ2uuK0ErPmsJlpc-41">
          <mxGeometry x="0.5143" y="1" relative="1" as="geometry">
            <mxPoint x="-22" y="-29" as="offset" />
          </mxGeometry>
        </mxCell>
        <mxCell id="bZ5_NQ2uuK0ErPmsJlpc-48" value="IRQ_bouton_2" style="edgeLabel;html=1;align=center;verticalAlign=middle;resizable=0;points=[];" vertex="1" connectable="0" parent="1">
          <mxGeometry x="459.99555555555554" y="390" as="geometry" />
        </mxCell>
        <mxCell id="bZ5_NQ2uuK0ErPmsJlpc-50" value="MicorP" style="rounded=0;whiteSpace=wrap;html=1;" vertex="1" parent="1">
          <mxGeometry x="510" y="270" width="230" height="760" as="geometry" />
        </mxCell>
        <mxCell id="bZ5_NQ2uuK0ErPmsJlpc-51" value="" style="endArrow=classic;html=1;rounded=0;entryX=0;entryY=0.5;entryDx=0;entryDy=0;" edge="1" parent="1" target="bZ5_NQ2uuK0ErPmsJlpc-52">
          <mxGeometry width="50" height="50" relative="1" as="geometry">
            <mxPoint x="740" y="340" as="sourcePoint" />
            <mxPoint x="790" y="340" as="targetPoint" />
          </mxGeometry>
        </mxCell>
        <mxCell id="bZ5_NQ2uuK0ErPmsJlpc-52" value="FMC" style="rounded=0;whiteSpace=wrap;html=1;" vertex="1" parent="1">
          <mxGeometry x="790" y="310" width="120" height="60" as="geometry" />
        </mxCell>
        <mxCell id="bZ5_NQ2uuK0ErPmsJlpc-56" value="" style="endArrow=classic;html=1;rounded=0;exitX=1;exitY=0.5;exitDx=0;exitDy=0;" edge="1" parent="1" source="bZ5_NQ2uuK0ErPmsJlpc-52">
          <mxGeometry width="50" height="50" relative="1" as="geometry">
            <mxPoint x="930" y="339.72" as="sourcePoint" />
            <mxPoint x="1000" y="339.72" as="targetPoint" />
          </mxGeometry>
        </mxCell>
        <mxCell id="bZ5_NQ2uuK0ErPmsJlpc-57" value="" style="endArrow=classic;html=1;rounded=0;entryX=0;entryY=0.5;entryDx=0;entryDy=0;" edge="1" parent="1" target="bZ5_NQ2uuK0ErPmsJlpc-58">
          <mxGeometry width="50" height="50" relative="1" as="geometry">
            <mxPoint x="740" y="420" as="sourcePoint" />
            <mxPoint x="790" y="420" as="targetPoint" />
          </mxGeometry>
        </mxCell>
        <mxCell id="bZ5_NQ2uuK0ErPmsJlpc-58" value="DMA2D" style="rounded=0;whiteSpace=wrap;html=1;" vertex="1" parent="1">
          <mxGeometry x="790" y="390" width="120" height="60" as="geometry" />
        </mxCell>
        <mxCell id="bZ5_NQ2uuK0ErPmsJlpc-59" value="" style="endArrow=classic;html=1;rounded=0;exitX=1;exitY=0.5;exitDx=0;exitDy=0;" edge="1" parent="1" source="bZ5_NQ2uuK0ErPmsJlpc-58">
          <mxGeometry width="50" height="50" relative="1" as="geometry">
            <mxPoint x="930" y="419.72" as="sourcePoint" />
            <mxPoint x="1000" y="419.72" as="targetPoint" />
          </mxGeometry>
        </mxCell>
        <mxCell id="bZ5_NQ2uuK0ErPmsJlpc-71" value="Ecran_LCD" style="edgeLabel;html=1;align=center;verticalAlign=middle;resizable=0;points=[];" vertex="1" connectable="0" parent="bZ5_NQ2uuK0ErPmsJlpc-59">
          <mxGeometry x="0.3703" y="-1" relative="1" as="geometry">
            <mxPoint x="-7" y="-21" as="offset" />
          </mxGeometry>
        </mxCell>
        <mxCell id="bZ5_NQ2uuK0ErPmsJlpc-60" value="" style="endArrow=classic;html=1;rounded=0;entryX=0;entryY=0.5;entryDx=0;entryDy=0;" edge="1" parent="1" target="bZ5_NQ2uuK0ErPmsJlpc-61">
          <mxGeometry width="50" height="50" relative="1" as="geometry">
            <mxPoint x="740" y="500" as="sourcePoint" />
            <mxPoint x="790" y="500" as="targetPoint" />
          </mxGeometry>
        </mxCell>
        <mxCell id="bZ5_NQ2uuK0ErPmsJlpc-61" value="LTDC" style="rounded=0;whiteSpace=wrap;html=1;" vertex="1" parent="1">
          <mxGeometry x="790" y="470" width="120" height="60" as="geometry" />
        </mxCell>
        <mxCell id="bZ5_NQ2uuK0ErPmsJlpc-62" value="" style="endArrow=classic;html=1;rounded=0;exitX=1;exitY=0.5;exitDx=0;exitDy=0;" edge="1" parent="1" source="bZ5_NQ2uuK0ErPmsJlpc-61">
          <mxGeometry width="50" height="50" relative="1" as="geometry">
            <mxPoint x="930" y="499.72" as="sourcePoint" />
            <mxPoint x="1000" y="499.72" as="targetPoint" />
          </mxGeometry>
        </mxCell>
        <mxCell id="bZ5_NQ2uuK0ErPmsJlpc-72" value="Couleur_LCD" style="edgeLabel;html=1;align=center;verticalAlign=middle;resizable=0;points=[];" vertex="1" connectable="0" parent="bZ5_NQ2uuK0ErPmsJlpc-62">
          <mxGeometry x="-0.0928" y="-2" relative="1" as="geometry">
            <mxPoint y="-22" as="offset" />
          </mxGeometry>
        </mxCell>
        <mxCell id="bZ5_NQ2uuK0ErPmsJlpc-70" value="SDAM1" style="text;html=1;align=center;verticalAlign=middle;resizable=0;points=[];autosize=1;strokeColor=none;fillColor=none;" vertex="1" parent="1">
          <mxGeometry x="935" y="305" width="60" height="30" as="geometry" />
        </mxCell>
        <mxCell id="bZ5_NQ2uuK0ErPmsJlpc-74" value="&lt;font style=&quot;font-size: 22px;&quot;&gt;bord du modéle&lt;/font&gt;" style="text;html=1;align=center;verticalAlign=middle;whiteSpace=wrap;rounded=0;" vertex="1" parent="1">
          <mxGeometry x="495" y="170" width="260" height="30" as="geometry" />
        </mxCell>
        <mxCell id="bZ5_NQ2uuK0ErPmsJlpc-75" value="NVIC" style="rounded=0;whiteSpace=wrap;html=1;" vertex="1" parent="1">
          <mxGeometry x="1660" y="100" width="120" height="60" as="geometry" />
        </mxCell>
        <mxCell id="bZ5_NQ2uuK0ErPmsJlpc-76" value="" style="endArrow=classic;html=1;rounded=0;entryX=0;entryY=0.5;entryDx=0;entryDy=0;" edge="1" parent="1" target="bZ5_NQ2uuK0ErPmsJlpc-75">
          <mxGeometry width="50" height="50" relative="1" as="geometry">
            <mxPoint x="1570" y="130" as="sourcePoint" />
            <mxPoint x="1610" y="110" as="targetPoint" />
          </mxGeometry>
        </mxCell>
        <mxCell id="bZ5_NQ2uuK0ErPmsJlpc-77" value="bouton_1" style="edgeLabel;html=1;align=center;verticalAlign=middle;resizable=0;points=[];" vertex="1" connectable="0" parent="bZ5_NQ2uuK0ErPmsJlpc-76">
          <mxGeometry x="-0.2667" y="2" relative="1" as="geometry">
            <mxPoint y="-28" as="offset" />
          </mxGeometry>
        </mxCell>
        <mxCell id="bZ5_NQ2uuK0ErPmsJlpc-78" value="IRQ_bouton_1" style="edgeLabel;html=1;align=center;verticalAlign=middle;resizable=0;points=[];" vertex="1" connectable="0" parent="1">
          <mxGeometry x="1851.939960992327" y="114.1626328380762" as="geometry" />
        </mxCell>
        <mxCell id="bZ5_NQ2uuK0ErPmsJlpc-79" value="NVIC" style="rounded=0;whiteSpace=wrap;html=1;" vertex="1" parent="1">
          <mxGeometry x="1660" y="190" width="120" height="60" as="geometry" />
        </mxCell>
        <mxCell id="bZ5_NQ2uuK0ErPmsJlpc-80" value="" style="endArrow=classic;html=1;rounded=0;entryX=0;entryY=0.5;entryDx=0;entryDy=0;" edge="1" parent="1" target="bZ5_NQ2uuK0ErPmsJlpc-79">
          <mxGeometry width="50" height="50" relative="1" as="geometry">
            <mxPoint x="1570" y="220" as="sourcePoint" />
            <mxPoint x="1610" y="200" as="targetPoint" />
          </mxGeometry>
        </mxCell>
        <mxCell id="bZ5_NQ2uuK0ErPmsJlpc-81" value="bouton_2" style="edgeLabel;html=1;align=center;verticalAlign=middle;resizable=0;points=[];" vertex="1" connectable="0" parent="bZ5_NQ2uuK0ErPmsJlpc-80">
          <mxGeometry x="-0.2667" y="2" relative="1" as="geometry">
            <mxPoint y="-28" as="offset" />
          </mxGeometry>
        </mxCell>
        <mxCell id="bZ5_NQ2uuK0ErPmsJlpc-82" value="I2C" style="rounded=0;whiteSpace=wrap;html=1;" vertex="1" parent="1">
          <mxGeometry x="1660" y="270" width="120" height="60" as="geometry" />
        </mxCell>
        <mxCell id="bZ5_NQ2uuK0ErPmsJlpc-83" value="" style="endArrow=classic;html=1;rounded=0;entryX=0;entryY=0.5;entryDx=0;entryDy=0;" edge="1" parent="1" target="bZ5_NQ2uuK0ErPmsJlpc-82">
          <mxGeometry width="50" height="50" relative="1" as="geometry">
            <mxPoint x="1570" y="300" as="sourcePoint" />
            <mxPoint x="1610" y="280" as="targetPoint" />
          </mxGeometry>
        </mxCell>
        <mxCell id="bZ5_NQ2uuK0ErPmsJlpc-84" value="mesure_HTS221" style="edgeLabel;html=1;align=center;verticalAlign=middle;resizable=0;points=[];" vertex="1" connectable="0" parent="bZ5_NQ2uuK0ErPmsJlpc-83">
          <mxGeometry x="-0.2667" y="2" relative="1" as="geometry">
            <mxPoint y="-28" as="offset" />
          </mxGeometry>
        </mxCell>
        <mxCell id="bZ5_NQ2uuK0ErPmsJlpc-85" value="IRQ_HTS221" style="edgeLabel;html=1;align=center;verticalAlign=middle;resizable=0;points=[];" vertex="1" connectable="0" parent="1">
          <mxGeometry x="1854.4959604097498" y="269.7248058302939" as="geometry" />
        </mxCell>
        <mxCell id="bZ5_NQ2uuK0ErPmsJlpc-86" value="I2C" style="rounded=0;whiteSpace=wrap;html=1;" vertex="1" parent="1">
          <mxGeometry x="1660" y="350" width="120" height="60" as="geometry" />
        </mxCell>
        <mxCell id="bZ5_NQ2uuK0ErPmsJlpc-87" value="" style="endArrow=classic;html=1;rounded=0;entryX=0;entryY=0.5;entryDx=0;entryDy=0;" edge="1" parent="1" target="bZ5_NQ2uuK0ErPmsJlpc-86">
          <mxGeometry width="50" height="50" relative="1" as="geometry">
            <mxPoint x="1570" y="380" as="sourcePoint" />
            <mxPoint x="1610" y="360" as="targetPoint" />
          </mxGeometry>
        </mxCell>
        <mxCell id="bZ5_NQ2uuK0ErPmsJlpc-88" value="mesure_LPS22HH" style="edgeLabel;html=1;align=center;verticalAlign=middle;resizable=0;points=[];" vertex="1" connectable="0" parent="bZ5_NQ2uuK0ErPmsJlpc-87">
          <mxGeometry x="-0.2667" y="2" relative="1" as="geometry">
            <mxPoint y="-28" as="offset" />
          </mxGeometry>
        </mxCell>
        <mxCell id="bZ5_NQ2uuK0ErPmsJlpc-89" value="IRQ_HTS221" style="edgeLabel;html=1;align=center;verticalAlign=middle;resizable=0;points=[];" vertex="1" connectable="0" parent="1">
          <mxGeometry x="1849.5063464706927" y="351.28234991024556" as="geometry" />
        </mxCell>
        <mxCell id="bZ5_NQ2uuK0ErPmsJlpc-90" value="UART" style="rounded=0;whiteSpace=wrap;html=1;" vertex="1" parent="1">
          <mxGeometry x="1660" y="440" width="120" height="60" as="geometry" />
        </mxCell>
        <mxCell id="bZ5_NQ2uuK0ErPmsJlpc-91" value="" style="endArrow=classic;html=1;rounded=0;entryX=0;entryY=0.5;entryDx=0;entryDy=0;" edge="1" parent="1" target="bZ5_NQ2uuK0ErPmsJlpc-90">
          <mxGeometry width="50" height="50" relative="1" as="geometry">
            <mxPoint x="1570" y="470" as="sourcePoint" />
            <mxPoint x="1610" y="450" as="targetPoint" />
          </mxGeometry>
        </mxCell>
        <mxCell id="bZ5_NQ2uuK0ErPmsJlpc-92" value="mesure_rain" style="edgeLabel;html=1;align=center;verticalAlign=middle;resizable=0;points=[];" vertex="1" connectable="0" parent="bZ5_NQ2uuK0ErPmsJlpc-91">
          <mxGeometry x="-0.2667" y="2" relative="1" as="geometry">
            <mxPoint y="-28" as="offset" />
          </mxGeometry>
        </mxCell>
        <mxCell id="bZ5_NQ2uuK0ErPmsJlpc-93" value="IRQ_Rain" style="edgeLabel;html=1;align=center;verticalAlign=middle;resizable=0;points=[];" vertex="1" connectable="0" parent="1">
          <mxGeometry x="1831.9967421365695" y="442.22011020031323" as="geometry" />
        </mxCell>
        <mxCell id="bZ5_NQ2uuK0ErPmsJlpc-135" style="edgeStyle=orthogonalEdgeStyle;rounded=0;orthogonalLoop=1;jettySize=auto;html=1;" edge="1" parent="1" source="bZ5_NQ2uuK0ErPmsJlpc-94">
          <mxGeometry relative="1" as="geometry">
            <mxPoint x="1940" y="700" as="targetPoint" />
          </mxGeometry>
        </mxCell>
        <mxCell id="bZ5_NQ2uuK0ErPmsJlpc-94" value="UART" style="rounded=0;whiteSpace=wrap;html=1;" vertex="1" parent="1">
          <mxGeometry x="1669.76" y="650" width="120" height="60" as="geometry" />
        </mxCell>
        <mxCell id="bZ5_NQ2uuK0ErPmsJlpc-95" value="" style="endArrow=classic;html=1;rounded=0;entryX=0;entryY=0.5;entryDx=0;entryDy=0;" edge="1" parent="1" target="bZ5_NQ2uuK0ErPmsJlpc-94">
          <mxGeometry width="50" height="50" relative="1" as="geometry">
            <mxPoint x="1579.76" y="680" as="sourcePoint" />
            <mxPoint x="1619.76" y="660" as="targetPoint" />
          </mxGeometry>
        </mxCell>
        <mxCell id="bZ5_NQ2uuK0ErPmsJlpc-96" value="mesure_Wind" style="edgeLabel;html=1;align=center;verticalAlign=middle;resizable=0;points=[];" vertex="1" connectable="0" parent="bZ5_NQ2uuK0ErPmsJlpc-95">
          <mxGeometry x="-0.2667" y="2" relative="1" as="geometry">
            <mxPoint y="-28" as="offset" />
          </mxGeometry>
        </mxCell>
        <mxCell id="bZ5_NQ2uuK0ErPmsJlpc-97" value="IRQ_wind" style="edgeLabel;html=1;align=center;verticalAlign=middle;resizable=0;points=[];" vertex="1" connectable="0" parent="1">
          <mxGeometry x="1841.756416019333" y="649.7600063487512" as="geometry" />
        </mxCell>
        <mxCell id="bZ5_NQ2uuK0ErPmsJlpc-153" style="edgeStyle=orthogonalEdgeStyle;rounded=0;orthogonalLoop=1;jettySize=auto;html=1;endArrow=none;endFill=0;" edge="1" parent="1" source="bZ5_NQ2uuK0ErPmsJlpc-98">
          <mxGeometry relative="1" as="geometry">
            <mxPoint x="1860" y="510" as="targetPoint" />
          </mxGeometry>
        </mxCell>
        <mxCell id="bZ5_NQ2uuK0ErPmsJlpc-98" value="Timer6" style="rounded=0;whiteSpace=wrap;html=1;" vertex="1" parent="1">
          <mxGeometry x="1660" y="520" width="120" height="60" as="geometry" />
        </mxCell>
        <mxCell id="bZ5_NQ2uuK0ErPmsJlpc-99" value="conteur" style="edgeLabel;html=1;align=center;verticalAlign=middle;resizable=0;points=[];" vertex="1" connectable="0" parent="1">
          <mxGeometry x="1822.002183994021" y="520.1800023615897" as="geometry">
            <mxPoint x="-12" y="11" as="offset" />
          </mxGeometry>
        </mxCell>
        <mxCell id="bZ5_NQ2uuK0ErPmsJlpc-100" value="Timer1" style="rounded=0;whiteSpace=wrap;html=1;" vertex="1" parent="1">
          <mxGeometry x="1669.76" y="730" width="120" height="60" as="geometry" />
        </mxCell>
        <mxCell id="bZ5_NQ2uuK0ErPmsJlpc-101" value="conteur" style="edgeLabel;html=1;align=center;verticalAlign=middle;resizable=0;points=[];" vertex="1" connectable="0" parent="1">
          <mxGeometry x="1846.764789857624" y="730.516678329243" as="geometry">
            <mxPoint x="-10" y="4" as="offset" />
          </mxGeometry>
        </mxCell>
        <mxCell id="bZ5_NQ2uuK0ErPmsJlpc-102" value="TimerRCT" style="rounded=0;whiteSpace=wrap;html=1;" vertex="1" parent="1">
          <mxGeometry x="1669.76" y="840" width="120" height="60" as="geometry" />
        </mxCell>
        <mxCell id="bZ5_NQ2uuK0ErPmsJlpc-103" value="conteur" style="edgeLabel;html=1;align=center;verticalAlign=middle;resizable=0;points=[];" vertex="1" connectable="0" parent="1">
          <mxGeometry x="1822.0061104160832" y="840.0044176767753" as="geometry">
            <mxPoint x="11" y="5" as="offset" />
          </mxGeometry>
        </mxCell>
        <mxCell id="bZ5_NQ2uuK0ErPmsJlpc-104" value="IRQ_bouton_2" style="edgeLabel;html=1;align=center;verticalAlign=middle;resizable=0;points=[];" vertex="1" connectable="0" parent="1">
          <mxGeometry x="1829.9955555555555" y="200" as="geometry" />
        </mxCell>
        <mxCell id="bZ5_NQ2uuK0ErPmsJlpc-117" value="" style="endArrow=classic;html=1;rounded=0;" edge="1" parent="1">
          <mxGeometry width="50" height="50" relative="1" as="geometry">
            <mxPoint x="2060" y="160" as="sourcePoint" />
            <mxPoint x="2220" y="160" as="targetPoint" />
          </mxGeometry>
        </mxCell>
        <mxCell id="bZ5_NQ2uuK0ErPmsJlpc-119" style="edgeStyle=orthogonalEdgeStyle;rounded=0;orthogonalLoop=1;jettySize=auto;html=1;" edge="1" parent="1" source="bZ5_NQ2uuK0ErPmsJlpc-118">
          <mxGeometry relative="1" as="geometry">
            <mxPoint x="2540" y="160" as="targetPoint" />
          </mxGeometry>
        </mxCell>
        <mxCell id="bZ5_NQ2uuK0ErPmsJlpc-148" value="SDRAM1" style="edgeLabel;html=1;align=center;verticalAlign=middle;resizable=0;points=[];" vertex="1" connectable="0" parent="bZ5_NQ2uuK0ErPmsJlpc-119">
          <mxGeometry x="0.4629" relative="1" as="geometry">
            <mxPoint x="-37" y="-20" as="offset" />
          </mxGeometry>
        </mxCell>
        <mxCell id="bZ5_NQ2uuK0ErPmsJlpc-118" value="FMC" style="rounded=0;whiteSpace=wrap;html=1;" vertex="1" parent="1">
          <mxGeometry x="2220" y="130" width="120" height="60" as="geometry" />
        </mxCell>
        <mxCell id="bZ5_NQ2uuK0ErPmsJlpc-132" style="edgeStyle=orthogonalEdgeStyle;rounded=0;orthogonalLoop=1;jettySize=auto;html=1;entryX=0;entryY=0.5;entryDx=0;entryDy=0;" edge="1" parent="1" target="bZ5_NQ2uuK0ErPmsJlpc-98">
          <mxGeometry relative="1" as="geometry">
            <mxPoint x="1860" y="550" as="sourcePoint" />
            <Array as="points">
              <mxPoint x="1640" y="600" />
              <mxPoint x="1640" y="550" />
            </Array>
          </mxGeometry>
        </mxCell>
        <mxCell id="bZ5_NQ2uuK0ErPmsJlpc-136" style="edgeStyle=orthogonalEdgeStyle;rounded=0;orthogonalLoop=1;jettySize=auto;html=1;entryX=0;entryY=0.5;entryDx=0;entryDy=0;" edge="1" parent="1" target="bZ5_NQ2uuK0ErPmsJlpc-100">
          <mxGeometry relative="1" as="geometry">
            <mxPoint x="1870" y="760" as="sourcePoint" />
            <Array as="points">
              <mxPoint x="1650" y="810" />
              <mxPoint x="1650" y="760" />
            </Array>
          </mxGeometry>
        </mxCell>
        <mxCell id="bZ5_NQ2uuK0ErPmsJlpc-162" value="RAZ compteur TIM1" style="edgeLabel;html=1;align=center;verticalAlign=middle;resizable=0;points=[];" vertex="1" connectable="0" parent="bZ5_NQ2uuK0ErPmsJlpc-136">
          <mxGeometry x="-0.5179" y="-1" relative="1" as="geometry">
            <mxPoint x="-63" y="-9" as="offset" />
          </mxGeometry>
        </mxCell>
        <mxCell id="bZ5_NQ2uuK0ErPmsJlpc-146" style="edgeStyle=orthogonalEdgeStyle;rounded=0;orthogonalLoop=1;jettySize=auto;html=1;endArrow=blockThin;endFill=1;" edge="1" parent="1" source="bZ5_NQ2uuK0ErPmsJlpc-121" target="bZ5_NQ2uuK0ErPmsJlpc-150">
          <mxGeometry relative="1" as="geometry">
            <mxPoint x="2280" y="920" as="targetPoint" />
            <Array as="points">
              <mxPoint x="2120" y="860" />
              <mxPoint x="2120" y="920" />
              <mxPoint x="2200" y="920" />
              <mxPoint x="2200" y="830" />
            </Array>
          </mxGeometry>
        </mxCell>
        <mxCell id="bZ5_NQ2uuK0ErPmsJlpc-121" value="archivage des données" style="rounded=0;whiteSpace=wrap;html=1;" vertex="1" parent="1">
          <mxGeometry x="1940" y="120" width="120" height="810" as="geometry" />
        </mxCell>
        <mxCell id="bZ5_NQ2uuK0ErPmsJlpc-128" style="edgeStyle=orthogonalEdgeStyle;rounded=0;orthogonalLoop=1;jettySize=auto;html=1;entryX=0.007;entryY=0.029;entryDx=0;entryDy=0;entryPerimeter=0;" edge="1" parent="1" source="bZ5_NQ2uuK0ErPmsJlpc-75" target="bZ5_NQ2uuK0ErPmsJlpc-121">
          <mxGeometry relative="1" as="geometry" />
        </mxCell>
        <mxCell id="bZ5_NQ2uuK0ErPmsJlpc-129" style="edgeStyle=orthogonalEdgeStyle;rounded=0;orthogonalLoop=1;jettySize=auto;html=1;entryX=0;entryY=0.141;entryDx=0;entryDy=0;entryPerimeter=0;" edge="1" parent="1" source="bZ5_NQ2uuK0ErPmsJlpc-79" target="bZ5_NQ2uuK0ErPmsJlpc-121">
          <mxGeometry relative="1" as="geometry" />
        </mxCell>
        <mxCell id="bZ5_NQ2uuK0ErPmsJlpc-130" style="edgeStyle=orthogonalEdgeStyle;rounded=0;orthogonalLoop=1;jettySize=auto;html=1;entryX=-0.017;entryY=0.233;entryDx=0;entryDy=0;entryPerimeter=0;" edge="1" parent="1" source="bZ5_NQ2uuK0ErPmsJlpc-82" target="bZ5_NQ2uuK0ErPmsJlpc-121">
          <mxGeometry relative="1" as="geometry" />
        </mxCell>
        <mxCell id="bZ5_NQ2uuK0ErPmsJlpc-131" style="edgeStyle=orthogonalEdgeStyle;rounded=0;orthogonalLoop=1;jettySize=auto;html=1;entryX=-0.001;entryY=0.339;entryDx=0;entryDy=0;entryPerimeter=0;" edge="1" parent="1" source="bZ5_NQ2uuK0ErPmsJlpc-86" target="bZ5_NQ2uuK0ErPmsJlpc-121">
          <mxGeometry relative="1" as="geometry" />
        </mxCell>
        <mxCell id="bZ5_NQ2uuK0ErPmsJlpc-133" style="edgeStyle=orthogonalEdgeStyle;rounded=0;orthogonalLoop=1;jettySize=auto;html=1;entryX=0.083;entryY=0.926;entryDx=0;entryDy=0;entryPerimeter=0;" edge="1" parent="1" source="bZ5_NQ2uuK0ErPmsJlpc-102" target="bZ5_NQ2uuK0ErPmsJlpc-121">
          <mxGeometry relative="1" as="geometry" />
        </mxCell>
        <mxCell id="bZ5_NQ2uuK0ErPmsJlpc-134" style="edgeStyle=orthogonalEdgeStyle;rounded=0;orthogonalLoop=1;jettySize=auto;html=1;entryX=-0.009;entryY=0.715;entryDx=0;entryDy=0;entryPerimeter=0;" edge="1" parent="1" source="bZ5_NQ2uuK0ErPmsJlpc-100" target="bZ5_NQ2uuK0ErPmsJlpc-121">
          <mxGeometry relative="1" as="geometry" />
        </mxCell>
        <mxCell id="bZ5_NQ2uuK0ErPmsJlpc-137" style="edgeStyle=orthogonalEdgeStyle;rounded=0;orthogonalLoop=1;jettySize=auto;html=1;entryX=-0.017;entryY=0.486;entryDx=0;entryDy=0;entryPerimeter=0;" edge="1" parent="1" source="bZ5_NQ2uuK0ErPmsJlpc-90" target="bZ5_NQ2uuK0ErPmsJlpc-121">
          <mxGeometry relative="1" as="geometry" />
        </mxCell>
        <mxCell id="bZ5_NQ2uuK0ErPmsJlpc-147" style="edgeStyle=orthogonalEdgeStyle;rounded=0;orthogonalLoop=1;jettySize=auto;html=1;endArrow=classicThin;endFill=1;" edge="1" parent="1" source="bZ5_NQ2uuK0ErPmsJlpc-139" target="bZ5_NQ2uuK0ErPmsJlpc-151">
          <mxGeometry relative="1" as="geometry">
            <mxPoint x="2280" y="920" as="targetPoint" />
            <Array as="points">
              <mxPoint x="2120" y="990" />
              <mxPoint x="2120" y="920" />
              <mxPoint x="2200" y="920" />
              <mxPoint x="2200" y="990" />
            </Array>
          </mxGeometry>
        </mxCell>
        <mxCell id="bZ5_NQ2uuK0ErPmsJlpc-139" value="DMA2D" style="rounded=0;whiteSpace=wrap;html=1;" vertex="1" parent="1">
          <mxGeometry x="1669.76" y="960" width="120" height="60" as="geometry" />
        </mxCell>
        <mxCell id="bZ5_NQ2uuK0ErPmsJlpc-141" value="" style="endArrow=classicThin;html=1;rounded=0;entryX=0;entryY=0.5;entryDx=0;entryDy=0;endFill=1;" edge="1" parent="1" target="bZ5_NQ2uuK0ErPmsJlpc-139">
          <mxGeometry width="50" height="50" relative="1" as="geometry">
            <mxPoint x="1560" y="990" as="sourcePoint" />
            <mxPoint x="1930" y="550" as="targetPoint" />
          </mxGeometry>
        </mxCell>
        <mxCell id="bZ5_NQ2uuK0ErPmsJlpc-142" value="écran IRQ" style="edgeLabel;html=1;align=center;verticalAlign=middle;resizable=0;points=[];" vertex="1" connectable="0" parent="bZ5_NQ2uuK0ErPmsJlpc-141">
          <mxGeometry x="-0.1727" y="4" relative="1" as="geometry">
            <mxPoint x="226" y="-16" as="offset" />
          </mxGeometry>
        </mxCell>
        <mxCell id="bZ5_NQ2uuK0ErPmsJlpc-143" value="page change" style="edgeLabel;html=1;align=center;verticalAlign=middle;resizable=0;points=[];" vertex="1" connectable="0" parent="bZ5_NQ2uuK0ErPmsJlpc-141">
          <mxGeometry x="-0.0655" y="2" relative="1" as="geometry">
            <mxPoint x="-1" y="-18" as="offset" />
          </mxGeometry>
        </mxCell>
        <mxCell id="bZ5_NQ2uuK0ErPmsJlpc-154" style="edgeStyle=orthogonalEdgeStyle;rounded=0;orthogonalLoop=1;jettySize=auto;html=1;" edge="1" parent="1" source="bZ5_NQ2uuK0ErPmsJlpc-150" target="bZ5_NQ2uuK0ErPmsJlpc-155">
          <mxGeometry relative="1" as="geometry">
            <mxPoint x="2480" y="830" as="targetPoint" />
          </mxGeometry>
        </mxCell>
        <mxCell id="bZ5_NQ2uuK0ErPmsJlpc-150" value="gétion de l&#39;écran LCD" style="rounded=0;whiteSpace=wrap;html=1;" vertex="1" parent="1">
          <mxGeometry x="2240" y="800" width="120" height="60" as="geometry" />
        </mxCell>
        <mxCell id="bZ5_NQ2uuK0ErPmsJlpc-158" style="edgeStyle=orthogonalEdgeStyle;rounded=0;orthogonalLoop=1;jettySize=auto;html=1;" edge="1" parent="1" source="bZ5_NQ2uuK0ErPmsJlpc-151" target="bZ5_NQ2uuK0ErPmsJlpc-159">
          <mxGeometry relative="1" as="geometry">
            <mxPoint x="2460" y="990" as="targetPoint" />
          </mxGeometry>
        </mxCell>
        <mxCell id="bZ5_NQ2uuK0ErPmsJlpc-151" value="génére un panell de coulleu sur 16 bits" style="rounded=0;whiteSpace=wrap;html=1;" vertex="1" parent="1">
          <mxGeometry x="2240" y="960" width="120" height="60" as="geometry" />
        </mxCell>
        <mxCell id="bZ5_NQ2uuK0ErPmsJlpc-156" style="edgeStyle=orthogonalEdgeStyle;rounded=0;orthogonalLoop=1;jettySize=auto;html=1;" edge="1" parent="1" source="bZ5_NQ2uuK0ErPmsJlpc-155">
          <mxGeometry relative="1" as="geometry">
            <mxPoint x="2710" y="830" as="targetPoint" />
          </mxGeometry>
        </mxCell>
        <mxCell id="bZ5_NQ2uuK0ErPmsJlpc-157" value="SDAM1" style="edgeLabel;html=1;align=center;verticalAlign=middle;resizable=0;points=[];" vertex="1" connectable="0" parent="bZ5_NQ2uuK0ErPmsJlpc-156">
          <mxGeometry x="0.2727" y="1" relative="1" as="geometry">
            <mxPoint y="-19" as="offset" />
          </mxGeometry>
        </mxCell>
        <mxCell id="bZ5_NQ2uuK0ErPmsJlpc-155" value="FCM" style="rounded=0;whiteSpace=wrap;html=1;" vertex="1" parent="1">
          <mxGeometry x="2470" y="800" width="120" height="60" as="geometry" />
        </mxCell>
        <mxCell id="bZ5_NQ2uuK0ErPmsJlpc-160" style="edgeStyle=orthogonalEdgeStyle;rounded=0;orthogonalLoop=1;jettySize=auto;html=1;" edge="1" parent="1" source="bZ5_NQ2uuK0ErPmsJlpc-159">
          <mxGeometry relative="1" as="geometry">
            <mxPoint x="2730" y="990" as="targetPoint" />
          </mxGeometry>
        </mxCell>
        <mxCell id="bZ5_NQ2uuK0ErPmsJlpc-161" value="couleur _LCD" style="edgeLabel;html=1;align=center;verticalAlign=middle;resizable=0;points=[];" vertex="1" connectable="0" parent="bZ5_NQ2uuK0ErPmsJlpc-160">
          <mxGeometry x="0.262" y="3" relative="1" as="geometry">
            <mxPoint x="-12" y="-17" as="offset" />
          </mxGeometry>
        </mxCell>
        <mxCell id="bZ5_NQ2uuK0ErPmsJlpc-159" value="LTDC" style="rounded=0;whiteSpace=wrap;html=1;" vertex="1" parent="1">
          <mxGeometry x="2480" y="960" width="120" height="60" as="geometry" />
        </mxCell>
        <mxCell id="bZ5_NQ2uuK0ErPmsJlpc-163" value="RAZ compteur TIM6" style="edgeLabel;html=1;align=center;verticalAlign=middle;resizable=0;points=[];" vertex="1" connectable="0" parent="1">
          <mxGeometry x="1789.7571428571432" y="590.0000000000005" as="geometry" />
        </mxCell>
        <mxCell id="bZ5_NQ2uuK0ErPmsJlpc-165" value="&lt;font style=&quot;font-size: 17px;&quot;&gt;flot d&#39;évenement&lt;/font&gt;" style="text;html=1;align=center;verticalAlign=middle;whiteSpace=wrap;rounded=0;" vertex="1" parent="1">
          <mxGeometry x="1890" y="-90" width="60" height="30" as="geometry" />
        </mxCell>
      </root>
    </mxGraphModel>
  </diagram>
</mxfile>
